<svg xmlns="http://www.w3.org/2000/svg" width="390" height="844" viewBox="0 0 390 844"><title>Meal details</title><rect x="0" y="0" width="390" height="844" rx="0" fill="#F7F8F3"/><text x="24" y="29" font-family="Inter, Arial, sans-serif" font-size="14" font-weight="700" fill="#20292D">9:41</text><rect x="321" y="17" width="23" height="11" rx="3" fill="#20292D"/><rect x="348" y="20" width="2" height="5" rx="1" fill="#20292D"/><rect x="291" y="26" width="3" height="3" rx="1" fill="#20292D"/><rect x="296" y="23" width="3" height="6" rx="1" fill="#20292D"/><rect x="301" y="20" width="3" height="9" rx="1" fill="#20292D"/><rect x="306" y="17" width="3" height="12" rx="1" fill="#20292D"/><g transform="translate(20 63) scale(1)" fill="none" stroke="#20292D" stroke-width="1.8" stroke-linecap="round" stroke-linejoin="round"><path d="m14 5-7 7 7 7"/></g><text x="56" y="82" font-family="Inter, Arial, sans-serif" font-size="24" font-weight="750" fill="#20292D">Your breakfast</text><text x="20" y="122" font-family="Inter, Arial, sans-serif" font-size="14" font-weight="400" fill="#667078">Sun, Feb 1 · 8:30 AM</text><g transform="translate(137 155) scale(1.45)"><circle cx="40" cy="40" r="38" fill="#EEF5D8"/><ellipse cx="40" cy="41" rx="28" ry="12" fill="#E3D8BD"/><path d="M12 40c1 35 54 35 56 0" fill="#FFFEF8" stroke="#DADDD1"/><ellipse cx="40" cy="39" rx="26" ry="11" fill="#D6BB8A"/><circle cx="28" cy="37" r="6" fill="#36516C"/><circle cx="42" cy="33" r="5" fill="#36516C"/><path d="M49 35c12-14 18 1 7 9Z" fill="#E87962"/></g><text x="32" y="312" font-family="Inter, Arial, sans-serif" font-size="27" font-weight="750" fill="#20292D">Oatmeal with berries</text><text x="152" y="346" font-family="Inter, Arial, sans-serif" font-size="22" font-weight="700" fill="#20292D">380 kcal</text><text x="20" y="398" font-family="Inter, Arial, sans-serif" font-size="23" font-weight="750" fill="#20292D">What’s inside</text><text x="24" y="431" font-family="Inter, Arial, sans-serif" font-size="16" font-weight="500" fill="#20292D">Rolled oats</text><text x="290" y="431" font-family="Inter, Arial, sans-serif" font-size="14" font-weight="400" fill="#667078">40 g</text><path d="M24 448L366 448" stroke="#E3E7DF"/><text x="24" y="480" font-family="Inter, Arial, sans-serif" font-size="16" font-weight="500" fill="#20292D">2% milk</text><text x="290" y="480" font-family="Inter, Arial, sans-serif" font-size="14" font-weight="400" fill="#667078">150 ml</text><path d="M24 497L366 497" stroke="#E3E7DF"/><text x="24" y="529" font-family="Inter, Arial, sans-serif" font-size="16" font-weight="500" fill="#20292D">Mixed berries</text><text x="290" y="529" font-family="Inter, Arial, sans-serif" font-size="14" font-weight="400" fill="#667078">60 g</text><path d="M24 546L366 546" stroke="#E3E7DF"/><text x="24" y="578" font-family="Inter, Arial, sans-serif" font-size="16" font-weight="500" fill="#20292D">Almonds</text><text x="290" y="578" font-family="Inter, Arial, sans-serif" font-size="14" font-weight="400" fill="#667078">10 g</text><path d="M24 595L366 595" stroke="#E3E7DF"/><rect x="20" y="683" width="350" height="54" rx="17" fill="#DEFA64"/><text x="195" y="716" text-anchor="middle" font-family="Inter, Arial, sans-serif" font-size="16" font-weight="700" fill="#20292D">Edit meal</text><text x="146" y="772" font-family="Inter, Arial, sans-serif" font-size="14" font-weight="600" fill="#AA4739">Delete meal</text><rect x="137" y="828" width="116" height="4" rx="2" fill="#20292D"/></svg>